<mxfile host="app.diagrams.net" modified="2021-03-21T07:36:37.494Z" agent="5.0 (Windows NT 10.0; Win64; x64) AppleWebKit/537.36 (KHTML, like Gecko) Chrome/89.0.4389.90 Safari/537.36" etag="enz5x97VERasKjMSUWVH" version="14.4.8" type="github">
  <diagram id="3znDkmUsml0PgW4NmglO" name="Page-1">
    <mxGraphModel dx="1038" dy="556" grid="1" gridSize="10" guides="1" tooltips="1" connect="1" arrows="1" fold="1" page="1" pageScale="1" pageWidth="827" pageHeight="900" math="0" shadow="0">
      <root>
        <mxCell id="0" />
        <mxCell id="1" parent="0" />
        <mxCell id="8L2yzhRbb9HR0Q6Lf9H3-1" value="" style="rounded=0;whiteSpace=wrap;html=1;perimeterSpacing=0;" parent="1" vertex="1">
          <mxGeometry x="275" y="50" width="310" height="160" as="geometry" />
        </mxCell>
        <mxCell id="8L2yzhRbb9HR0Q6Lf9H3-2" value="" style="rounded=0;whiteSpace=wrap;html=1;fillColor=#dae8fc;sketch=1;strokeColor=#6c8ebf;fontSize=19;perimeterSpacing=0;" parent="1" vertex="1">
          <mxGeometry x="275" y="50" width="240" height="100" as="geometry" />
        </mxCell>
        <mxCell id="8L2yzhRbb9HR0Q6Lf9H3-3" value="" style="rounded=0;whiteSpace=wrap;html=1;sketch=1;fillColor=#ffe6cc;strokeColor=#d79b00;perimeterSpacing=0;" parent="1" vertex="1">
          <mxGeometry x="325" y="120" width="260" height="90" as="geometry" />
        </mxCell>
        <mxCell id="8L2yzhRbb9HR0Q6Lf9H3-5" value="&lt;font style=&quot;font-size: 13px&quot; color=&quot;#0000ff&quot;&gt;&lt;b&gt;标签&lt;/b&gt;&lt;/font&gt;" style="rounded=0;whiteSpace=wrap;html=1;sketch=1;fillColor=#f0a30a;strokeColor=#BD7000;fontColor=#ffffff;perimeterSpacing=0;" parent="1" vertex="1">
          <mxGeometry x="555" y="120" width="30" height="90" as="geometry" />
        </mxCell>
        <mxCell id="8L2yzhRbb9HR0Q6Lf9H3-6" value="A方&lt;br&gt;数据" style="text;html=1;align=center;verticalAlign=middle;resizable=0;points=[];autosize=1;fontSize=19;perimeterSpacing=0;" parent="1" vertex="1">
          <mxGeometry x="275" y="60" width="50" height="50" as="geometry" />
        </mxCell>
        <mxCell id="8L2yzhRbb9HR0Q6Lf9H3-7" value="B方&lt;br&gt;数据" style="text;html=1;align=center;verticalAlign=middle;resizable=0;points=[];autosize=1;fontSize=19;fontColor=#000000;perimeterSpacing=0;" parent="1" vertex="1">
          <mxGeometry x="505" y="160" width="50" height="50" as="geometry" />
        </mxCell>
        <mxCell id="8L2yzhRbb9HR0Q6Lf9H3-8" value="用户维度" style="text;html=1;align=center;verticalAlign=middle;resizable=0;points=[];autosize=1;fontSize=19;fontColor=#000000;perimeterSpacing=0;" parent="1" vertex="1">
          <mxGeometry x="185" y="120" width="90" height="30" as="geometry" />
        </mxCell>
        <mxCell id="8L2yzhRbb9HR0Q6Lf9H3-9" value="用户特征维度" style="text;html=1;align=center;verticalAlign=middle;resizable=0;points=[];autosize=1;fontSize=19;fontColor=#000000;perimeterSpacing=0;" parent="1" vertex="1">
          <mxGeometry x="350" y="230" width="130" height="30" as="geometry" />
        </mxCell>
        <mxCell id="8L2yzhRbb9HR0Q6Lf9H3-10" value="" style="rounded=0;whiteSpace=wrap;html=1;sketch=0;fontSize=20;fontColor=#ffffff;strokeWidth=7;dashed=1;perimeterSpacing=0;shadow=1;strokeColor=#B20000;fillColor=none;dashPattern=1 1;" parent="1" vertex="1">
          <mxGeometry x="325" y="50" width="190" height="160" as="geometry" />
        </mxCell>
        <mxCell id="8L2yzhRbb9HR0Q6Lf9H3-11" value="横向联邦学习" style="text;html=1;strokeColor=none;fillColor=none;align=center;verticalAlign=middle;whiteSpace=wrap;rounded=0;shadow=1;dashed=1;dashPattern=1 1;sketch=1;fontSize=20;fontColor=#A10000;" parent="1" vertex="1">
          <mxGeometry x="395" y="120" width="40" height="20" as="geometry" />
        </mxCell>
        <mxCell id="8L2yzhRbb9HR0Q6Lf9H3-30" value="" style="rounded=0;whiteSpace=wrap;html=1;perimeterSpacing=0;" parent="1" vertex="1">
          <mxGeometry x="275" y="620" width="310" height="160" as="geometry" />
        </mxCell>
        <mxCell id="8L2yzhRbb9HR0Q6Lf9H3-31" value="" style="rounded=0;whiteSpace=wrap;html=1;fillColor=#dae8fc;sketch=1;strokeColor=#6c8ebf;fontSize=19;perimeterSpacing=0;" parent="1" vertex="1">
          <mxGeometry x="275" y="620" width="230" height="140" as="geometry" />
        </mxCell>
        <mxCell id="8L2yzhRbb9HR0Q6Lf9H3-32" value="" style="rounded=0;whiteSpace=wrap;html=1;sketch=1;fillColor=#ffe6cc;strokeColor=#d79b00;perimeterSpacing=0;" parent="1" vertex="1">
          <mxGeometry x="455" y="640" width="130" height="140" as="geometry" />
        </mxCell>
        <mxCell id="8L2yzhRbb9HR0Q6Lf9H3-33" value="&lt;font style=&quot;font-size: 13px&quot; color=&quot;#0000ff&quot;&gt;&lt;b&gt;标签&lt;/b&gt;&lt;/font&gt;" style="rounded=0;whiteSpace=wrap;html=1;sketch=1;fillColor=#f0a30a;strokeColor=#BD7000;fontColor=#ffffff;perimeterSpacing=0;" parent="1" vertex="1">
          <mxGeometry x="555" y="640" width="30" height="140" as="geometry" />
        </mxCell>
        <mxCell id="8L2yzhRbb9HR0Q6Lf9H3-34" value="A方&lt;br&gt;数据" style="text;html=1;align=center;verticalAlign=middle;resizable=0;points=[];autosize=1;fontSize=19;perimeterSpacing=0;" parent="1" vertex="1">
          <mxGeometry x="275" y="630" width="50" height="50" as="geometry" />
        </mxCell>
        <mxCell id="8L2yzhRbb9HR0Q6Lf9H3-35" value="B方&lt;br&gt;数据" style="text;html=1;align=center;verticalAlign=middle;resizable=0;points=[];autosize=1;fontSize=19;fontColor=#000000;perimeterSpacing=0;" parent="1" vertex="1">
          <mxGeometry x="505" y="730" width="50" height="50" as="geometry" />
        </mxCell>
        <mxCell id="8L2yzhRbb9HR0Q6Lf9H3-36" value="用户维度" style="text;html=1;align=center;verticalAlign=middle;resizable=0;points=[];autosize=1;fontSize=19;fontColor=#000000;perimeterSpacing=0;" parent="1" vertex="1">
          <mxGeometry x="185" y="700" width="90" height="30" as="geometry" />
        </mxCell>
        <mxCell id="8L2yzhRbb9HR0Q6Lf9H3-37" value="用户特征维度" style="text;html=1;align=center;verticalAlign=middle;resizable=0;points=[];autosize=1;fontSize=19;fontColor=#000000;perimeterSpacing=0;" parent="1" vertex="1">
          <mxGeometry x="350" y="800" width="130" height="30" as="geometry" />
        </mxCell>
        <mxCell id="8L2yzhRbb9HR0Q6Lf9H3-38" value="" style="rounded=0;whiteSpace=wrap;html=1;sketch=0;fontSize=20;fontColor=#ffffff;strokeWidth=7;dashed=1;perimeterSpacing=0;shadow=1;fillColor=none;dashPattern=1 1;strokeColor=#B20000;" parent="1" vertex="1">
          <mxGeometry x="275" y="640" width="310" height="120" as="geometry" />
        </mxCell>
        <mxCell id="8L2yzhRbb9HR0Q6Lf9H3-39" value="纵向联邦学习" style="text;html=1;strokeColor=none;fillColor=none;align=center;verticalAlign=middle;whiteSpace=wrap;rounded=0;shadow=1;dashed=1;dashPattern=1 1;sketch=1;fontSize=20;fontColor=#A10000;" parent="1" vertex="1">
          <mxGeometry x="357.5" y="692.5" width="135" height="15" as="geometry" />
        </mxCell>
        <mxCell id="8L2yzhRbb9HR0Q6Lf9H3-40" value="" style="rounded=0;whiteSpace=wrap;html=1;perimeterSpacing=0;" parent="1" vertex="1">
          <mxGeometry x="270" y="340" width="310" height="160" as="geometry" />
        </mxCell>
        <mxCell id="8L2yzhRbb9HR0Q6Lf9H3-41" value="" style="rounded=0;whiteSpace=wrap;html=1;fillColor=#dae8fc;sketch=1;strokeColor=#6c8ebf;fontSize=19;perimeterSpacing=0;" parent="1" vertex="1">
          <mxGeometry x="270" y="340" width="130" height="90" as="geometry" />
        </mxCell>
        <mxCell id="8L2yzhRbb9HR0Q6Lf9H3-42" value="" style="rounded=0;whiteSpace=wrap;html=1;sketch=1;fillColor=#ffe6cc;strokeColor=#d79b00;perimeterSpacing=0;" parent="1" vertex="1">
          <mxGeometry x="380" y="410" width="200" height="90" as="geometry" />
        </mxCell>
        <mxCell id="8L2yzhRbb9HR0Q6Lf9H3-43" value="&lt;font style=&quot;font-size: 13px&quot; color=&quot;#0000ff&quot;&gt;&lt;b&gt;标签&lt;/b&gt;&lt;/font&gt;" style="rounded=0;whiteSpace=wrap;html=1;sketch=1;fillColor=#f0a30a;strokeColor=#BD7000;fontColor=#ffffff;perimeterSpacing=0;" parent="1" vertex="1">
          <mxGeometry x="550" y="410" width="30" height="90" as="geometry" />
        </mxCell>
        <mxCell id="8L2yzhRbb9HR0Q6Lf9H3-44" value="A方&lt;br&gt;数据" style="text;html=1;align=center;verticalAlign=middle;resizable=0;points=[];autosize=1;fontSize=19;perimeterSpacing=0;" parent="1" vertex="1">
          <mxGeometry x="270" y="350" width="50" height="50" as="geometry" />
        </mxCell>
        <mxCell id="8L2yzhRbb9HR0Q6Lf9H3-45" value="B方&lt;br&gt;数据" style="text;html=1;align=center;verticalAlign=middle;resizable=0;points=[];autosize=1;fontSize=19;fontColor=#000000;perimeterSpacing=0;" parent="1" vertex="1">
          <mxGeometry x="500" y="450" width="50" height="50" as="geometry" />
        </mxCell>
        <mxCell id="8L2yzhRbb9HR0Q6Lf9H3-46" value="用户维度" style="text;html=1;align=center;verticalAlign=middle;resizable=0;points=[];autosize=1;fontSize=19;fontColor=#000000;perimeterSpacing=0;" parent="1" vertex="1">
          <mxGeometry x="180" y="420" width="90" height="30" as="geometry" />
        </mxCell>
        <mxCell id="8L2yzhRbb9HR0Q6Lf9H3-47" value="用户特征维度" style="text;html=1;align=center;verticalAlign=middle;resizable=0;points=[];autosize=1;fontSize=19;fontColor=#000000;perimeterSpacing=0;" parent="1" vertex="1">
          <mxGeometry x="335" y="520" width="130" height="30" as="geometry" />
        </mxCell>
        <mxCell id="8L2yzhRbb9HR0Q6Lf9H3-49" value="&lt;font color=&quot;#b20000&quot;&gt;联邦迁移学习&lt;/font&gt;" style="text;html=1;strokeColor=none;fillColor=none;align=center;verticalAlign=middle;whiteSpace=wrap;rounded=0;shadow=1;dashed=1;dashPattern=1 1;sketch=1;fontSize=20;fontColor=#000000;" parent="1" vertex="1">
          <mxGeometry x="390" y="360" width="160" height="20" as="geometry" />
        </mxCell>
        <mxCell id="8L2yzhRbb9HR0Q6Lf9H3-56" value="" style="endArrow=classic;html=1;fontSize=20;fontColor=#A10000;exitX=1;exitY=0.5;exitDx=0;exitDy=0;entryX=-0.1;entryY=0.629;entryDx=0;entryDy=0;entryPerimeter=0;dashed=1;strokeWidth=5;strokeColor=#A10000;" parent="1" source="8L2yzhRbb9HR0Q6Lf9H3-41" target="8L2yzhRbb9HR0Q6Lf9H3-57" edge="1">
          <mxGeometry width="50" height="50" relative="1" as="geometry">
            <mxPoint x="455" y="400" as="sourcePoint" />
            <mxPoint x="505" y="350" as="targetPoint" />
          </mxGeometry>
        </mxCell>
        <mxCell id="8L2yzhRbb9HR0Q6Lf9H3-57" value="" style="rounded=0;whiteSpace=wrap;html=1;dashed=1;sketch=1;" parent="1" vertex="1">
          <mxGeometry x="550" y="340" width="30" height="70" as="geometry" />
        </mxCell>
        <mxCell id="8L2yzhRbb9HR0Q6Lf9H3-60" value="" style="endArrow=classic;html=1;fontSize=20;fontColor=#A10000;strokeColor=#A10000;strokeWidth=1;dashed=1;" parent="1" edge="1">
          <mxGeometry width="50" height="50" relative="1" as="geometry">
            <mxPoint x="470" y="410" as="sourcePoint" />
            <mxPoint x="470" y="390" as="targetPoint" />
          </mxGeometry>
        </mxCell>
      </root>
    </mxGraphModel>
  </diagram>
</mxfile>
